<svg width="572" height="514" viewBox="0 0 572 514" fill="none" xmlns="http://www.w3.org/2000/svg">
<g filter="url(#filter0_d)">
<path fill-rule="evenodd" clip-rule="evenodd" d="M308.993 1.79903C365.553 -9.09004 418.385 31.6641 463.282 64.5117C506.171 95.8908 549.079 133.97 556.979 183.233C564.475 229.974 529.081 271.628 503.073 312.632C482.222 345.506 452.562 369.965 422.033 395.987C385.998 426.703 356.626 465.577 308.993 478.063C251.966 493.011 178.767 507.641 135.347 471.135C91.1995 434.018 123.758 366.732 112.921 313.215C104.149 269.894 60.6886 229.387 78.0594 188.225C95.3987 147.138 159.838 145.27 196.176 115.935C239.346 81.0854 252.306 12.7124 308.993 1.79903Z" fill="url(#paint0_linear)"/>
</g>
<rect width="336.568" height="194.788" rx="5" transform="matrix(-1 0 0 1 552.793 110)" fill="#F2F2F2"/>
<rect width="326.35" height="184.569" rx="5" transform="matrix(-1 0 0 1 547.684 115.11)" fill="#FCFCFC"/>
<path fill-rule="evenodd" clip-rule="evenodd" d="M349.392 159.609C351.489 155.199 352.38 150.244 350.713 145.406C345.909 131.466 326.971 139.89 325.045 148.091C323.119 156.292 328.45 174.358 333.765 174.307C335.885 174.287 339.773 171.904 343.378 168.161L345.794 187.973L361.727 183.704L349.392 159.609Z" fill="#D4A181"/>
<path fill-rule="evenodd" clip-rule="evenodd" d="M343.609 160.086C346.601 163.349 350.099 165.472 352.829 164.741C358.014 163.351 359.843 155.431 357.846 147.978C357.776 147.716 357.701 147.457 357.622 147.202C364.115 149.496 370.33 155.782 377.588 153.838C387.462 151.192 386.047 130.226 372.251 133.922C362.87 136.436 358.621 139.04 355.186 142.129C353.809 140.127 352.115 138.589 350.305 137.682C349.847 137.38 349.206 137.146 348.416 136.981C347.928 136.862 347.437 136.791 346.946 136.769C344.311 136.531 340.671 136.84 336.754 137.744C336.022 137.913 335.309 138.096 334.617 138.292C333.626 134.638 329.865 132.472 326.205 133.453C322.539 134.435 320.363 138.204 321.346 141.87C322.296 145.416 325.851 147.567 329.401 146.817C331.568 146.898 334.261 146.662 337.164 146.089C337.167 147.205 337.333 148.428 337.691 149.765C338.008 150.945 338.473 152.162 339.054 153.369C339.475 152.468 340.174 151.767 341.013 151.542C343.362 150.913 345.514 152.407 346.064 154.458C346.761 157.061 345.763 159.347 343.609 160.086Z" fill="#1D3148"/>
<path fill-rule="evenodd" clip-rule="evenodd" d="M382.049 244.46L356.874 331.212L345.032 396.347H333.147L345.011 244.46H382.049Z" fill="#BA8B72"/>
<path fill-rule="evenodd" clip-rule="evenodd" d="M393.362 244.46C391.606 289.528 392.298 314.108 392.692 318.203C393.085 322.298 395.317 349.72 410.526 397.721H398.165C378.022 351.672 370.991 324.25 368.681 318.203C366.37 312.156 359.547 287.575 349.586 244.46H393.362Z" fill="#D4A181"/>
<path fill-rule="evenodd" clip-rule="evenodd" d="M382.59 244.46C376.041 274.312 364.715 321.963 348.612 387.412H331.229C329.945 320.234 335.406 276.02 344.865 244.46H382.59Z" fill="#C1665D"/>
<path fill-rule="evenodd" clip-rule="evenodd" d="M393.451 244.46C391.731 289.528 396.189 333.927 410 388.114H391.453C371.274 342.752 356.811 298.572 346.926 244.46H393.451Z" fill="#C16665"/>
<path fill-rule="evenodd" clip-rule="evenodd" d="M412.289 406.656L411.607 395.659C407.613 396.827 402.611 396.369 396.601 394.285C390.139 398.863 382.003 401.988 372.195 403.662C371.447 403.79 370.944 404.5 371.071 405.248C371.08 405.297 371.091 405.345 371.104 405.392L372.047 408.718H396.601H410.924L412.289 406.656Z" fill="#1D3148"/>
<path fill-rule="evenodd" clip-rule="evenodd" d="M347.686 406.656L347.003 395.659C343.01 396.827 338.008 396.369 331.998 394.285C325.536 398.863 317.4 401.988 307.592 403.662C306.844 403.79 306.341 404.5 306.468 405.248C306.477 405.297 306.488 405.345 306.501 405.392L307.444 408.718H331.998H346.321L347.686 406.656Z" fill="#1D3148"/>
<path fill-rule="evenodd" clip-rule="evenodd" d="M332.873 205.822L307.112 197.097C302.387 193.147 297.903 190.223 293.659 188.324C292.415 188.045 290.337 188.11 292.825 191.138C295.313 194.167 297.793 197.465 297.011 198.672C296.228 199.878 293.566 198.855 292.718 200.78C292.152 202.063 296.584 203.15 306.014 204.043L325.84 216.663L332.873 205.822ZM297.994 223.165L286.675 219.316C284.256 214.062 282.036 211.595 280.016 211.916C278.342 211.469 282.264 217.955 279.225 217.869C276.186 217.782 268.09 213.721 267.047 215.019C265.504 216.94 267.997 221.563 270.345 223.667C274.732 227.601 277.974 228.639 285.666 229.39C289.687 229.783 294.21 231.194 299.232 233.625L297.994 223.165Z" fill="#D4A181"/>
<path fill-rule="evenodd" clip-rule="evenodd" d="M343.81 200.941C335.566 202.305 324.286 202.502 311.268 197.134L308.478 208.199C317.967 214.79 330.484 219.373 340.364 217.343C348.15 215.744 350.48 205.574 343.81 200.941Z" fill="#474557"/>
<path fill-rule="evenodd" clip-rule="evenodd" d="M335.63 219.336C327.279 223.055 312.176 223.069 290.323 219.378C287.084 230.829 286.052 238.767 287.229 243.193C306.494 249.297 322.337 250.739 334.841 248.814C335.748 256.275 337.888 263.149 342.043 269.042C350.585 281.157 384.807 262.508 397.463 262.759C400.737 236.532 384.144 229.034 381.325 213.118C378.238 195.689 359.511 171.326 357.452 171.689L338.672 175.001C339.983 188.496 337.354 204.087 335.63 219.336Z" fill="#1D2F45"/>
<path fill-rule="evenodd" clip-rule="evenodd" d="M130.911 224.979C127.842 221.376 125.765 216.962 126.112 212.015C127.112 197.761 146.954 200.897 150.813 208.091C154.673 215.285 154.214 233.533 149.226 234.819C147.237 235.331 142.999 234.075 138.686 231.476L141.393 250.628H125.408L130.911 224.979Z" fill="#57331F"/>
<path fill-rule="evenodd" clip-rule="evenodd" d="M139.485 213.588C140.097 222.111 141.716 226.373 144.341 226.373C148.279 226.373 151.621 223.873 153.349 223.873C154.608 223.873 154.327 225.449 153.492 226.618C152.803 227.582 149.448 228.511 149.448 230.006C149.448 231.501 152.099 230.345 152.099 231.231C152.099 232.698 152.565 235.455 150.019 235.455C147.443 235.455 140.058 234.516 138.792 230.693C137.975 228.226 137.447 223.113 137.208 215.355C137.051 215.336 136.892 215.327 136.731 215.327C134.524 215.327 132.735 217.116 132.735 219.323C132.735 220.443 133.196 221.456 133.939 222.182C133.014 223.487 131.978 224.85 130.79 226.257C126.329 223.581 123.019 215.746 127.38 208.219C128.586 204.532 131.315 202.562 134.538 201.648C137.149 200.555 139.859 200.432 142.147 201.087C146.632 201.472 150.637 202.839 151.772 203.651C151.772 207.898 150.95 209.158 143.922 209.046C142.195 209.958 140.868 211.529 139.485 213.588Z" fill="#191847"/>
<path fill-rule="evenodd" clip-rule="evenodd" d="M207.892 328.901C213.152 325.743 221.978 329.801 221.972 334.319C221.954 347.835 209.618 411.539 208.974 415.566C208.33 419.594 201.431 420.657 201.029 415.58C200.39 407.5 199.202 379.532 200.39 366.586C200.881 361.242 201.409 356.153 201.929 351.613C195.457 363.302 185.446 380.038 171.898 401.821L164.542 398.461C170.318 379.431 175.054 365.997 178.75 358.158C185.079 344.736 191.014 333.241 193.511 329.193C197.44 322.824 204.279 325.046 207.892 328.901Z" fill="#B28B67"/>
<path fill-rule="evenodd" clip-rule="evenodd" d="M165.068 387.894L190.313 328.092C196.36 318.364 213.316 330.071 211.254 335.714C206.571 348.523 182.759 389.994 181.364 393.81L165.068 387.894Z" fill="#9B5154"/>
<path fill-rule="evenodd" clip-rule="evenodd" d="M163.665 394.69C162.093 395.985 161.07 397.042 160.596 397.862C160.021 398.859 159.346 400.411 158.574 402.516C159.731 403.184 170.129 409.187 189.769 420.526C192.127 418.315 192.494 416.598 190.871 415.375C189.248 414.153 187.908 413.123 186.853 412.284L176.085 397.449C175.878 397.163 175.479 397.1 175.193 397.307C175.188 397.311 175.184 397.314 175.179 397.318L172.942 399.041C170.889 398.861 169.358 398.48 168.347 397.896C167.525 397.422 166.583 396.436 165.519 394.937L165.519 394.937C165.11 394.362 164.313 394.226 163.738 394.635C163.713 394.652 163.689 394.671 163.665 394.69Z" fill="#E4E4E4"/>
<path fill-rule="evenodd" clip-rule="evenodd" d="M199.413 412.336C198.698 414.244 198.341 415.671 198.341 416.618C198.341 417.769 198.533 419.45 198.916 421.659C200.252 421.659 212.259 421.659 234.937 421.659C235.873 418.565 235.333 416.894 233.316 416.647C231.3 416.401 229.624 416.178 228.29 415.979L211.548 408.515C211.226 408.372 210.848 408.516 210.705 408.838C210.702 408.844 210.7 408.85 210.698 408.855L209.621 411.466C207.754 412.337 206.237 412.772 205.07 412.772C204.122 412.772 202.812 412.389 201.141 411.623L201.141 411.623C200.5 411.329 199.742 411.611 199.448 412.252C199.435 412.28 199.423 412.308 199.413 412.336Z" fill="#E4E4E4"/>
<path fill-rule="evenodd" clip-rule="evenodd" d="M223.74 338.912C223.74 355.879 215.683 395.457 215.678 399.193L198.341 399.206C200.879 363.892 201.778 346.044 201.041 345.664C199.934 345.093 155.664 350.084 142.387 350.084C123.241 350.084 115.321 338.01 114.678 315.645H152.605C160.328 316.471 200.608 324.595 215.567 327.388C221.971 328.584 223.74 334.238 223.74 338.912Z" fill="#C45E63"/>
<path fill-rule="evenodd" clip-rule="evenodd" d="M180.775 297.415L198.866 315.064C204.13 317.309 208.443 319.789 211.805 322.502C212.562 323.414 213.385 325.161 209.827 324.379C206.27 323.597 202.493 322.935 201.824 324.092C201.156 325.249 203.126 327.022 201.89 328.536C201.066 329.545 198.296 326.334 193.579 318.904L174.766 307.812L180.775 297.415ZM92.3068 281.442L106.292 281.494C95.6403 316.003 89.9863 334.071 89.3295 335.699C87.8517 339.361 90.9789 344.939 92.3162 347.936C87.9606 349.885 88.4247 342.667 82.9302 345.224C77.9151 347.557 74.1001 351.784 68.3059 348.209C67.5935 347.77 66.8129 346.115 68.699 344.821C73.398 341.599 80.1696 335.96 81.0845 334.104C82.3322 331.573 86.073 314.019 92.3068 281.442Z" fill="#B28B67"/>
<path fill-rule="evenodd" clip-rule="evenodd" d="M134.921 241.772L140.443 240.825C149.143 271.577 193.841 292.539 196.585 304.034C197.591 308.25 194.557 310.381 196.125 311.666L188.946 316.92C187.731 315.502 185.137 318.096 179.72 316.282C174.303 314.467 134.921 278.185 134.921 241.772Z" fill="#F0E1C4"/>
<path fill-rule="evenodd" clip-rule="evenodd" d="M144.21 245.861C143.573 286.574 167.109 296.96 161.866 313.292C157.537 326.78 116.101 341.278 108.93 328.058C106.028 322.706 104.711 316.234 104.562 309.197C102.729 314.603 101.28 319.257 100.213 323.159C98.3741 329.89 91.2437 330.96 91.2437 333.553L81.8494 330.96C82.4866 327.437 78.0579 325.722 79.2453 317.851C84.5658 282.587 98.8609 257.025 122.131 241.165L122.371 237.722C122.47 236.315 123.691 235.254 125.098 235.352L142.3 236.555C143.707 236.653 144.768 237.874 144.67 239.281L144.21 245.861Z" fill="#F0E1C4"/>
<path fill-rule="evenodd" clip-rule="evenodd" d="M92.6581 210.473C89.1729 207.272 86.5731 203.143 86.3147 198.191C85.5703 183.921 105.646 184.615 110.354 191.286C115.061 197.956 116.83 216.124 112.036 218.008C110.124 218.759 105.764 218.029 101.167 215.974L106.188 234.654L90.3219 236.602L92.6581 210.473Z" fill="#915B3C"/>
<path fill-rule="evenodd" clip-rule="evenodd" d="M100.301 184.167C98.1677 184.081 92.5084 184.536 91.4701 184.664C90.8065 184.745 90.1061 184.985 89.6383 184.424C89.2552 183.965 89.2695 183.106 89.1023 182.539C88.9082 181.88 88.6683 181.236 88.4267 180.593C87.7394 178.765 86.8298 177.057 85.6584 175.492C83.4604 172.556 80.5048 170.408 76.9801 169.38C73.0879 168.245 68.8597 168.394 64.9226 169.205C60.7093 170.072 57.0295 171.95 53.1739 173.766C49.4996 175.496 45.5501 176.484 41.4699 176.36C37.359 176.236 34.0418 174.424 30.3837 172.766C26.6387 171.069 22.4865 170.168 18.407 170.993C14.5989 171.763 11.2504 173.786 8.33155 176.297C5.60068 178.646 3.43944 181.335 2.46631 184.865C1.4194 188.662 1.90786 192.629 4.75133 195.522C8.87286 199.715 15.616 200.102 21.0891 199.31C24.2548 198.851 27.3011 197.889 30.1685 196.467C33.9925 194.571 37.1536 191.764 40.6552 189.372C42.2985 188.249 44.0207 187.281 45.8559 186.511C47.6368 185.764 49.4245 185.302 51.2316 186.211C53.1434 187.173 54.8689 188.137 56.981 188.627C59.0071 189.097 61.1098 189.24 63.1739 188.971C67.1899 188.446 70.9987 186.707 74.7999 185.389C77.8996 184.314 81.2224 183.214 84.5489 183.473C85.937 183.581 87.9849 183.905 88.647 185.252C80.5968 187.755 78.6134 198.335 81.8523 205.525C83.6004 209.405 91.7099 213.197 94.3774 210.716C96.0673 209.145 94.7246 207.519 93.8528 206.444C92.1833 204.385 91.3541 201.579 93.746 199.71C95.8092 198.097 98.5419 200.989 98.5857 200.98C99.1921 200.857 104.115 197.216 107.224 192.402C110.846 192.174 111.1 189.736 110.004 187.902C108.907 186.068 103.248 184.286 100.301 184.167Z" fill="#191847"/>
<path fill-rule="evenodd" clip-rule="evenodd" d="M95.7556 291.059L120.153 375.131L131.629 438.254H143.147L131.649 291.059H95.7556Z" fill="#784931"/>
<path fill-rule="evenodd" clip-rule="evenodd" d="M84.7906 291.059C86.493 334.734 85.8216 358.556 85.4405 362.524C85.0595 366.492 82.8965 393.068 68.1567 439.586H80.1364C99.6568 394.959 106.471 368.384 108.71 362.524C110.949 356.664 117.561 332.842 127.215 291.059H84.7906Z" fill="#915B3C"/>
<path fill-rule="evenodd" clip-rule="evenodd" d="M95.2305 291.059C101.577 319.988 112.553 366.167 128.159 429.596H145.006C146.25 364.493 140.957 321.644 131.79 291.059H95.2305Z" fill="#1E222F"/>
<path fill-rule="evenodd" clip-rule="evenodd" d="M84.7047 291.059C86.372 334.734 82.0511 377.762 68.6667 430.276H86.6408C106.197 386.315 120.214 343.499 129.793 291.059H84.7047Z" fill="#2F3445"/>
<path fill-rule="evenodd" clip-rule="evenodd" d="M66.4492 448.245L67.1102 437.588C70.9803 438.72 75.8276 438.276 81.6522 436.256C87.915 440.692 95.7991 443.721 105.304 445.343C106.03 445.467 106.517 446.155 106.393 446.881C106.385 446.928 106.375 446.974 106.362 447.02L105.448 450.243H81.6522H67.7712L66.4492 448.245Z" fill="#191847"/>
<path fill-rule="evenodd" clip-rule="evenodd" d="M129.058 448.245L129.719 437.588C133.589 438.72 138.436 438.276 144.261 436.256C150.524 440.692 158.408 443.721 167.913 445.343C168.638 445.467 169.126 446.155 169.002 446.881C168.994 446.928 168.984 446.974 168.971 447.02L168.057 450.243H144.261H130.38L129.058 448.245Z" fill="#191847"/>
<path fill-rule="evenodd" clip-rule="evenodd" d="M150.758 275.939L174.39 287.614C180.334 288.145 185.411 289.214 189.621 290.821C190.664 291.482 192.044 292.95 188.264 293.321C184.483 293.692 180.523 294.252 180.233 295.615C179.943 296.978 182.468 298.101 181.73 300.001C181.239 301.268 177.456 298.976 170.383 293.126L148.148 288.188L150.758 275.939ZM70.5178 290.634L84.2344 288.271C80.5885 317.085 78.5756 332.388 78.1958 334.178C77.3412 338.207 81.5632 343.37 83.4795 346.206C79.359 348.996 78.5285 341.499 73.3483 345.12C68.62 348.424 65.4675 353.457 58.869 350.834C58.0578 350.512 56.9563 348.954 58.6592 347.284C62.9019 343.123 68.8354 336.105 69.4389 334.033C70.262 331.208 70.6216 316.741 70.5178 290.634Z" fill="#915B3C"/>
<path fill-rule="evenodd" clip-rule="evenodd" d="M99.3297 226.25L104.83 224.277C129.08 238.746 143.882 272.146 172.939 286.099L168.087 294.889C122.361 297.239 103.757 256.595 99.3297 226.25Z" fill="#F5BF6C"/>
<path fill-rule="evenodd" clip-rule="evenodd" d="M87.1722 301.886C109.914 297.876 126.643 294.926 137.358 293.037C139.651 292.633 138.635 289.397 138.009 287.785C130.783 269.175 112.182 251.021 107.342 223.57L92.4659 223.852C83.8879 245.22 83.9279 269.66 87.1722 301.886Z" fill="#DDE3E9"/>
<path fill-rule="evenodd" clip-rule="evenodd" d="M77.7287 245.968C75.5197 245.734 73.6062 244.618 71.9883 242.62C65.0139 234.006 65.9979 228.413 71.3476 225.688C76.6974 222.963 82.3674 225.633 91.3764 224.044C91.8664 223.958 92.3206 223.909 92.739 223.899L97.3163 223.358C118.088 265.131 126.858 293.899 123.626 309.661L84.1257 316.626C82.7476 322.496 81.3177 327.482 79.836 331.585L69.0729 333.483C62.2849 300.909 65.1701 271.737 77.7287 245.968Z" fill="#F5BF6C"/>
<path fill-rule="evenodd" clip-rule="evenodd" d="M88.7372 292.478C91.8122 302.653 95.1614 309.84 98.7849 314.041L84.1262 316.625C85.7337 309.778 87.2707 301.729 88.7372 292.478L88.7372 292.478Z" fill="black" fill-opacity="0.1"/>
<defs>
<filter id="filter0_d" x="68" y="0" width="504" height="514" filterUnits="userSpaceOnUse" color-interpolation-filters="sRGB">
<feFlood flood-opacity="0" result="BackgroundImageFix"/>
<feColorMatrix in="SourceAlpha" type="matrix" values="0 0 0 0 0 0 0 0 0 0 0 0 0 0 0 0 0 0 127 0"/>
<feOffset dx="4" dy="10"/>
<feGaussianBlur stdDeviation="5"/>
<feColorMatrix type="matrix" values="0 0 0 0 0.866667 0 0 0 0 0.403921 0 0 0 0 0.317647 0 0 0 0.26 0"/>
<feBlend mode="normal" in2="BackgroundImageFix" result="effect1_dropShadow"/>
<feBlend mode="normal" in="SourceGraphic" in2="effect1_dropShadow" result="shape"/>
</filter>
<linearGradient id="paint0_linear" x1="316" y1="0" x2="316" y2="494" gradientUnits="userSpaceOnUse">
<stop stop-color="#E97A41"/>
<stop offset="0.21875" stop-color="#F1704A"/>
<stop offset="0.479167" stop-color="#E16750"/>
<stop offset="0.677083" stop-color="#DD6751"/>
<stop offset="1" stop-color="#F39735"/>
</linearGradient>
</defs>
</svg>
