<svg width="1440" height="1336" viewBox="0 0 1440 1336" fill="none" xmlns="http://www.w3.org/2000/svg">
<path fill-rule="evenodd" clip-rule="evenodd" d="M180.813 -95.2142C58.123 -21.0271 -48.3171 19.7145 -57.3581 168.506C-65.9949 310.646 -69.8107 490.128 21.188 610.531C107.527 724.768 354.105 733.497 487.17 777.382C593.851 812.565 698.112 814.287 807.228 817.894C936.027 822.151 1070.47 855.605 1180.86 800.311C1313.01 734.112 1518.82 637.127 1517.47 482.96C1509.11 248.904 1323.97 251.324 1229.08 116.627C1152.27 7.59334 1101.24 13.5959 983.038 -45.5629C865.046 -104.614 715.482 -58.9197 589.092 -59.661C438.939 -60.5417 303.776 -169.567 180.813 -95.2142Z" fill="url(#paint0_linear)"/>
<defs>
<linearGradient id="paint0_linear" x1="600.057" y1="-562.795" x2="766.887" y2="1291.22" gradientUnits="userSpaceOnUse">
<stop stop-color="#10314F"/>
<stop offset="1" stop-color="#134572"/>
</linearGradient>
</defs>
</svg>
